<?xml version="1.0" encoding="iso-8859-1"?>
<!-- Generator: Adobe Illustrator 16.0.0, SVG Export Plug-In . SVG Version: 6.00 Build 0)  -->
<!DOCTYPE svg PUBLIC "-//W3C//DTD SVG 1.1//EN" "http://www.w3.org/Graphics/SVG/1.1/DTD/svg11.dtd">
<svg xmlns="http://www.w3.org/2000/svg" xmlns:xlink="http://www.w3.org/1999/xlink" version="1.1" id="Capa_1" x="0px" y="0px" width="512px" height="512px" viewBox="0 0 484.5 484.5" style="enable-background:new 0 0 484.5 484.5;" xml:space="preserve">
<g>
	<g id="directions-transit">
		<path d="M242.25,0c-112.2,0-204,12.75-204,102v242.25c0,48.45,40.8,89.25,89.25,89.25l-38.25,38.25v12.75h306v-12.75L357,433.5    c48.45,0,89.25-40.8,89.25-89.25V102C446.25,12.75,354.45,0,242.25,0z M127.5,382.5c-20.4,0-38.25-17.85-38.25-38.25    S107.1,306,127.5,306s38.25,17.85,38.25,38.25S147.9,382.5,127.5,382.5z M216.75,229.5H89.25V102h127.5V229.5z M357,382.5    c-20.4,0-38.25-17.85-38.25-38.25S336.6,306,357,306s38.25,17.85,38.25,38.25S377.4,382.5,357,382.5z M395.25,229.5h-127.5V102    h127.5V229.5z" fill="#FFFFFF"/>
	</g>
</g>
</svg>
