<svg width="23" height="15" viewBox="0 0 23 15" fill="none" xmlns="http://www.w3.org/2000/svg">
<path d="M5.5 14.5C4.66667 14.5 3.95833 14.2083 3.375 13.625C2.79167 13.0417 2.5 12.3333 2.5 11.5H0.5V2.5C0.5 1.95 0.696 1.47933 1.088 1.088C1.47933 0.696 1.95 0.5 2.5 0.5H16.5L22.5 6.5V11.5H20.5C20.5 12.3333 20.2083 13.0417 19.625 13.625C19.0417 14.2083 18.3333 14.5 17.5 14.5C16.6667 14.5 15.9583 14.2083 15.375 13.625C14.7917 13.0417 14.5 12.3333 14.5 11.5H8.5C8.5 12.3333 8.20833 13.0417 7.625 13.625C7.04167 14.2083 6.33333 14.5 5.5 14.5ZM14.5 5.5H18.5L15.5 2.5H14.5V5.5ZM8.5 5.5H12.5V2.5H8.5V5.5ZM2.5 5.5H6.5V2.5H2.5V5.5ZM5.5 12.75C5.85 12.75 6.146 12.629 6.388 12.387C6.62933 12.1457 6.75 11.85 6.75 11.5C6.75 11.15 6.62933 10.8543 6.388 10.613C6.146 10.371 5.85 10.25 5.5 10.25C5.15 10.25 4.85433 10.371 4.613 10.613C4.371 10.8543 4.25 11.15 4.25 11.5C4.25 11.85 4.371 12.1457 4.613 12.387C4.85433 12.629 5.15 12.75 5.5 12.75ZM17.5 12.75C17.85 12.75 18.146 12.629 18.388 12.387C18.6293 12.1457 18.75 11.85 18.75 11.5C18.75 11.15 18.6293 10.8543 18.388 10.613C18.146 10.371 17.85 10.25 17.5 10.25C17.15 10.25 16.8543 10.371 16.613 10.613C16.371 10.8543 16.25 11.15 16.25 11.5C16.25 11.85 16.371 12.1457 16.613 12.387C16.8543 12.629 17.15 12.75 17.5 12.75ZM2.5 9.5H3.3C3.58333 9.2 3.90833 8.95833 4.275 8.775C4.64167 8.59167 5.05 8.5 5.5 8.5C5.95 8.5 6.35833 8.59167 6.725 8.775C7.09167 8.95833 7.41667 9.2 7.7 9.5H15.3C15.5833 9.2 15.9083 8.95833 16.275 8.775C16.6417 8.59167 17.05 8.5 17.5 8.5C17.95 8.5 18.3583 8.59167 18.725 8.775C19.0917 8.95833 19.4167 9.2 19.7 9.5H20.5V7.5H2.5V9.5Z" fill="black"/>
</svg>

