<svg width="21" height="20" viewBox="0 0 21 20" fill="none" xmlns="http://www.w3.org/2000/svg">
<path d="M10.5037 19.5037L0.503679 4.50368C1.92035 3.30368 3.47468 2.33701 5.16668 1.60368C6.85801 0.870346 8.63701 0.503679 10.5037 0.503679C12.3703 0.503679 14.1493 0.866346 15.8407 1.59168C17.5327 2.31635 19.087 3.28701 20.5037 4.50368L10.5037 19.5037ZM10.5037 15.9037L17.8037 4.95368C16.7203 4.20368 15.562 3.60768 14.3287 3.16568C13.0953 2.72435 11.8203 2.50368 10.5037 2.50368C9.18701 2.50368 7.91635 2.72435 6.69168 3.16568C5.46635 3.60768 4.30368 4.20368 3.20368 4.95368L10.5037 15.9037ZM8.00368 7.50368C8.42035 7.50368 8.77435 7.35768 9.06568 7.06568C9.35768 6.77435 9.50368 6.42035 9.50368 6.00368C9.50368 5.58701 9.35768 5.23301 9.06568 4.94168C8.77435 4.64968 8.42035 4.50368 8.00368 4.50368C7.58701 4.50368 7.23301 4.64968 6.94168 4.94168C6.64968 5.23301 6.50368 5.58701 6.50368 6.00368C6.50368 6.42035 6.64968 6.77435 6.94168 7.06568C7.23301 7.35768 7.58701 7.50368 8.00368 7.50368ZM10.5037 12.5037C10.9203 12.5037 11.2743 12.3577 11.5657 12.0657C11.8577 11.7743 12.0037 11.4203 12.0037 11.0037C12.0037 10.587 11.8577 10.233 11.5657 9.94168C11.2743 9.64968 10.9203 9.50368 10.5037 9.50368C10.087 9.50368 9.73301 9.64968 9.44168 9.94168C9.14968 10.233 9.00368 10.587 9.00368 11.0037C9.00368 11.4203 9.14968 11.7743 9.44168 12.0657C9.73301 12.3577 10.087 12.5037 10.5037 12.5037Z" fill="#1C1B1F"/>
</svg>

