<svg width="21" height="21" viewBox="0 0 21 21" fill="none" xmlns="http://www.w3.org/2000/svg">
<path d="M10.5 20.5C9.11667 20.5 7.81667 20.2373 6.6 19.712C5.38333 19.1873 4.325 18.475 3.425 17.575C2.525 16.675 1.81267 15.6167 1.288 14.4C0.762667 13.1833 0.5 11.8833 0.5 10.5C0.5 9.11667 0.762667 7.81667 1.288 6.6C1.81267 5.38333 2.525 4.325 3.425 3.425C4.325 2.525 5.38333 1.81233 6.6 1.287C7.81667 0.762333 9.11667 0.5 10.5 0.5C11.8833 0.5 13.1833 0.762333 14.4 1.287C15.6167 1.81233 16.675 2.525 17.575 3.425C18.475 4.325 19.1873 5.38333 19.712 6.6C20.2373 7.81667 20.5 9.11667 20.5 10.5C20.5 11.8833 20.2373 13.1833 19.712 14.4C19.1873 15.6167 18.475 16.675 17.575 17.575C16.675 18.475 15.6167 19.1873 14.4 19.712C13.1833 20.2373 11.8833 20.5 10.5 20.5ZM15.5 8L16.85 7.55L17.25 6.2C16.7167 5.4 16.075 4.71233 15.325 4.137C14.575 3.56233 13.75 3.13333 12.85 2.85L11.5 3.8V5.2L15.5 8ZM5.5 8L9.5 5.2V3.8L8.15 2.85C7.25 3.13333 6.425 3.56233 5.675 4.137C4.925 4.71233 4.28333 5.4 3.75 6.2L4.15 7.55L5.5 8ZM4.45 15.7L5.6 15.6L6.35 14.25L4.9 9.9L3.5 9.4L2.5 10.15C2.5 11.2333 2.65 12.2207 2.95 13.112C3.25 14.004 3.75 14.8667 4.45 15.7ZM10.5 18.5C10.9333 18.5 11.3583 18.4667 11.775 18.4C12.1917 18.3333 12.6 18.2333 13 18.1L13.7 16.6L13.05 15.5H7.95L7.3 16.6L8 18.1C8.4 18.2333 8.80833 18.3333 9.225 18.4C9.64167 18.4667 10.0667 18.5 10.5 18.5ZM8.25 13.5H12.75L14.15 9.5L10.5 6.95L6.9 9.5L8.25 13.5ZM16.55 15.7C17.25 14.8667 17.75 14.004 18.05 13.112C18.35 12.2207 18.5 11.2333 18.5 10.15L17.5 9.45L16.1 9.9L14.65 14.25L15.4 15.6L16.55 15.7Z" fill="#1C1B1F"/>
</svg>

