<svg width="10" height="6" viewBox="0 0 10 6" fill="none" xmlns="http://www.w3.org/2000/svg">
<path d="M0.5 1.125C0.5 1.02344 0.537109 0.935547 0.611328 0.861328C0.685547 0.787109 0.773438 0.75 0.875 0.75C0.976562 0.75 1.06445 0.787109 1.13867 0.861328L5 4.7168L8.86133 0.861328C8.93555 0.787109 9.02344 0.75 9.125 0.75C9.22656 0.75 9.31445 0.787109 9.38867 0.861328C9.46289 0.935547 9.5 1.02344 9.5 1.125C9.5 1.22656 9.46289 1.31445 9.38867 1.38867L5.26367 5.51367C5.18945 5.58789 5.10156 5.625 5 5.625C4.89844 5.625 4.81055 5.58789 4.73633 5.51367L0.611328 1.38867C0.537109 1.31445 0.5 1.22656 0.5 1.125Z" fill="black"/>
</svg>

