<svg width="10" height="6" viewBox="0 0 10 6" fill="none" xmlns="http://www.w3.org/2000/svg">
<path d="M0.5 4.875C0.5 4.77344 0.537109 4.68555 0.611328 4.61133L4.73633 0.486328C4.81055 0.412109 4.89844 0.375 5 0.375C5.10156 0.375 5.18945 0.412109 5.26367 0.486328L9.38867 4.61133C9.46289 4.68555 9.5 4.77344 9.5 4.875C9.5 4.97656 9.46289 5.06445 9.38867 5.13867C9.31445 5.21289 9.22656 5.25 9.125 5.25C9.02344 5.25 8.93555 5.21289 8.86133 5.13867L5 1.2832L1.13867 5.13867C1.06445 5.21289 0.976562 5.25 0.875 5.25C0.773438 5.25 0.685547 5.21289 0.611328 5.13867C0.537109 5.06445 0.5 4.97656 0.5 4.875Z" fill="black"/>
</svg>

