<?xml version="1.0" encoding="iso-8859-1"?>
<!-- Generator: Adobe Illustrator 16.0.0, SVG Export Plug-In . SVG Version: 6.00 Build 0)  -->
<!DOCTYPE svg PUBLIC "-//W3C//DTD SVG 1.1//EN" "http://www.w3.org/Graphics/SVG/1.1/DTD/svg11.dtd">
<svg xmlns="http://www.w3.org/2000/svg" xmlns:xlink="http://www.w3.org/1999/xlink" version="1.1" id="Capa_1" x="0px" y="0px" width="512px" height="512px" viewBox="0 0 484.5 484.5" style="enable-background:new 0 0 484.5 484.5;" xml:space="preserve">
<g>
	<g id="directions-bus">
		<path d="M38.25,357c0,22.95,10.2,43.35,25.5,56.1V459c0,15.3,10.2,25.5,25.5,25.5h25.5c15.3,0,25.5-10.2,25.5-25.5v-25.5h204V459    c0,15.3,10.2,25.5,25.5,25.5h25.5c15.3,0,25.5-10.2,25.5-25.5v-45.9c15.3-12.75,25.5-33.149,25.5-56.1V102    c0-89.25-91.8-102-204-102s-204,12.75-204,102V357z M127.5,382.5c-20.4,0-38.25-17.85-38.25-38.25S107.1,306,127.5,306    s38.25,17.85,38.25,38.25S147.9,382.5,127.5,382.5z M357,382.5c-20.4,0-38.25-17.85-38.25-38.25S336.6,306,357,306    s38.25,17.85,38.25,38.25S377.4,382.5,357,382.5z M395.25,229.5h-306V102h306V229.5z" fill="#FFFFFF"/>
	</g>
</g>
</svg>
