<?xml version="1.0" encoding="iso-8859-1"?>
<!-- Generator: Adobe Illustrator 16.0.0, SVG Export Plug-In . SVG Version: 6.00 Build 0)  -->
<!DOCTYPE svg PUBLIC "-//W3C//DTD SVG 1.1//EN" "http://www.w3.org/Graphics/SVG/1.1/DTD/svg11.dtd">
<svg xmlns="http://www.w3.org/2000/svg" xmlns:xlink="http://www.w3.org/1999/xlink" version="1.1" id="Capa_1" x="0px" y="0px" width="512px" height="512px" viewBox="0 0 612 612" style="enable-background:new 0 0 612 612;" xml:space="preserve">
<g>
	<g id="cloud-queue">
		<path d="M494.7,255C476.85,168.3,400.35,102,306,102c-73.95,0-137.7,40.8-168.3,102C58.65,214.2,0,277.95,0,357    c0,84.15,68.85,153,153,153h331.5c71.4,0,127.5-56.1,127.5-127.5C612,316.2,558.45,260.1,494.7,255z M484.5,459H153    c-56.1,0-102-45.9-102-102c0-56.1,45.9-102,102-102h17.85c17.85-58.65,71.4-102,135.15-102c76.5,0,140.25,63.75,140.25,140.25V306    h38.25c43.35,0,76.5,33.15,76.5,76.5S527.85,459,484.5,459z" fill="#FFFFFF"/>
	</g>
</g>
</svg>
