<?xml version="1.0" encoding="iso-8859-1"?>
<!-- Generator: Adobe Illustrator 16.0.0, SVG Export Plug-In . SVG Version: 6.00 Build 0)  -->
<!DOCTYPE svg PUBLIC "-//W3C//DTD SVG 1.1//EN" "http://www.w3.org/Graphics/SVG/1.1/DTD/svg11.dtd">
<svg xmlns="http://www.w3.org/2000/svg" xmlns:xlink="http://www.w3.org/1999/xlink" version="1.1" id="Capa_1" x="0px" y="0px" width="512px" height="512px" viewBox="0 0 98.148 98.148" style="enable-background:new 0 0 98.148 98.148;" xml:space="preserve">
<g>
	<path d="M0.587,33.457l47.072,47.075c0.75,0.75,2.078,0.75,2.828,0l47.076-47.076c0.375-0.375,0.586-0.884,0.586-1.414   c0-0.53-0.211-1.039-0.586-1.414L84.575,17.641c-0.391-0.391-0.901-0.586-1.414-0.586c-0.512,0-1.022,0.195-1.414,0.586   L49.074,50.314L16.399,17.642c-0.75-0.751-2.078-0.75-2.828,0L0.587,30.629C-0.195,31.41-0.195,32.676,0.587,33.457z" fill="#FFFFFF"/>
</g>
<g>
</g>
<g>
</g>
<g>
</g>
<g>
</g>
<g>
</g>
<g>
</g>
<g>
</g>
<g>
</g>
<g>
</g>
<g>
</g>
<g>
</g>
<g>
</g>
<g>
</g>
<g>
</g>
<g>
</g>
</svg>
