<?xml version="1.0" encoding="iso-8859-1"?>
<!-- Generator: Adobe Illustrator 16.0.0, SVG Export Plug-In . SVG Version: 6.00 Build 0)  -->
<!DOCTYPE svg PUBLIC "-//W3C//DTD SVG 1.1//EN" "http://www.w3.org/Graphics/SVG/1.1/DTD/svg11.dtd">
<svg xmlns="http://www.w3.org/2000/svg" xmlns:xlink="http://www.w3.org/1999/xlink" version="1.1" id="Capa_1" x="0px" y="0px" width="512px" height="512px" viewBox="0 0 98.148 98.148" style="enable-background:new 0 0 98.148 98.148;" xml:space="preserve">
<g>
	<path d="M64.691,0.587L17.617,47.659c-0.75,0.75-0.75,2.078,0,2.828l47.076,47.076c0.375,0.375,0.883,0.586,1.414,0.586   c0.529,0,1.039-0.211,1.414-0.586l12.986-12.987c0.391-0.391,0.586-0.901,0.586-1.414c0-0.512-0.195-1.022-0.586-1.414   L47.834,49.073l32.672-32.674c0.752-0.75,0.75-2.078,0-2.828L67.52,0.587C66.738-0.195,65.473-0.195,64.691,0.587z" fill="#FFFFFF"/>
</g>
<g>
</g>
<g>
</g>
<g>
</g>
<g>
</g>
<g>
</g>
<g>
</g>
<g>
</g>
<g>
</g>
<g>
</g>
<g>
</g>
<g>
</g>
<g>
</g>
<g>
</g>
<g>
</g>
<g>
</g>
</svg>
