<?xml version="1.0" encoding="iso-8859-1"?>
<!-- Generator: Adobe Illustrator 16.0.0, SVG Export Plug-In . SVG Version: 6.00 Build 0)  -->
<!DOCTYPE svg PUBLIC "-//W3C//DTD SVG 1.1//EN" "http://www.w3.org/Graphics/SVG/1.1/DTD/svg11.dtd">
<svg xmlns="http://www.w3.org/2000/svg" xmlns:xlink="http://www.w3.org/1999/xlink" version="1.1" id="Capa_1" x="0px" y="0px" width="512px" height="512px" viewBox="0 0 459 459" style="enable-background:new 0 0 459 459;" xml:space="preserve">
<g>
	<g id="phone-in-talk">
		<path d="M433.5,318.75c-30.6,0-61.2-5.1-91.8-15.3c-7.65-2.55-17.851,0-25.5,5.1L260.1,364.65    c-71.399-35.7-130.05-96.9-168.3-168.3l56.1-56.1c7.65-7.65,10.2-17.85,5.1-25.5c-7.65-28.05-12.75-58.65-12.75-89.25    c0-15.3-10.2-25.5-25.5-25.5H25.5C10.2,0,0,10.2,0,25.5C0,265.2,193.8,459,433.5,459c15.3,0,25.5-10.2,25.5-25.5v-89.25    C459,328.95,448.8,318.75,433.5,318.75z M408,229.5h51C459,102,357,0,229.5,0v51C328.95,51,408,130.05,408,229.5z M306,229.5h51    c0-71.4-56.1-127.5-127.5-127.5v51C272.85,153,306,186.15,306,229.5z" fill="#FFFFFF"/>
	</g>
</g>
</svg>
