<?xml version="1.0" encoding="iso-8859-1"?>
<!-- Generator: Adobe Illustrator 16.0.0, SVG Export Plug-In . SVG Version: 6.00 Build 0)  -->
<!DOCTYPE svg PUBLIC "-//W3C//DTD SVG 1.1//EN" "http://www.w3.org/Graphics/SVG/1.1/DTD/svg11.dtd">
<svg xmlns="http://www.w3.org/2000/svg" xmlns:xlink="http://www.w3.org/1999/xlink" version="1.1" id="Capa_1" x="0px" y="0px" width="512px" height="512px" viewBox="0 0 98.148 98.148" style="enable-background:new 0 0 98.148 98.148;" xml:space="preserve">
<g>
	<path d="M33.458,97.562L80.531,50.49c0.75-0.75,0.75-2.078,0-2.828L33.456,0.586C33.081,0.211,32.572,0,32.042,0   c-0.53,0-1.039,0.211-1.414,0.586L17.641,13.573c-0.391,0.391-0.586,0.902-0.586,1.414c0,0.512,0.195,1.023,0.586,1.414   l32.674,32.674L17.642,81.75c-0.751,0.75-0.75,2.078,0,2.828l12.987,12.984C31.411,98.344,32.677,98.344,33.458,97.562z" fill="#FFFFFF"/>
</g>
<g>
</g>
<g>
</g>
<g>
</g>
<g>
</g>
<g>
</g>
<g>
</g>
<g>
</g>
<g>
</g>
<g>
</g>
<g>
</g>
<g>
</g>
<g>
</g>
<g>
</g>
<g>
</g>
<g>
</g>
</svg>
