<?xml version="1.0" encoding="iso-8859-1"?>
<!-- Generator: Adobe Illustrator 16.0.0, SVG Export Plug-In . SVG Version: 6.00 Build 0)  -->
<!DOCTYPE svg PUBLIC "-//W3C//DTD SVG 1.1//EN" "http://www.w3.org/Graphics/SVG/1.1/DTD/svg11.dtd">
<svg xmlns="http://www.w3.org/2000/svg" xmlns:xlink="http://www.w3.org/1999/xlink" version="1.1" id="Capa_1" x="0px" y="0px" width="512px" height="512px" viewBox="0 0 98.148 98.149" style="enable-background:new 0 0 98.148 98.149;" xml:space="preserve">
<g>
	<path d="M97.562,64.692L50.49,17.618c-0.75-0.75-2.078-0.75-2.828,0L0.586,64.693C0.211,65.068,0,65.577,0,66.106   c0,0.53,0.211,1.039,0.586,1.414l12.987,12.987c0.391,0.391,0.902,0.586,1.414,0.586c0.512,0,1.023-0.195,1.414-0.586   l32.674-32.674L81.75,80.506c0.75,0.751,2.078,0.75,2.828,0l12.984-12.987C98.344,66.739,98.344,65.472,97.562,64.692z" fill="#FFFFFF"/>
</g>
<g>
</g>
<g>
</g>
<g>
</g>
<g>
</g>
<g>
</g>
<g>
</g>
<g>
</g>
<g>
</g>
<g>
</g>
<g>
</g>
<g>
</g>
<g>
</g>
<g>
</g>
<g>
</g>
<g>
</g>
</svg>
