<?xml version="1.0" encoding="iso-8859-1"?>
<!-- Generator: Adobe Illustrator 14.0.0, SVG Export Plug-In . SVG Version: 6.00 Build 43363)  -->
<!DOCTYPE svg PUBLIC "-//W3C//DTD SVG 1.0//EN" "http://www.w3.org/TR/2001/REC-SVG-20010904/DTD/svg10.dtd">
<svg version="1.0" id="Ebene_1" xmlns="http://www.w3.org/2000/svg" xmlns:xlink="http://www.w3.org/1999/xlink" x="0px" y="0px"
	 width="283.51px" height="178.51px" viewBox="0 0 283.51 178.51" style="enable-background:new 0 0 283.51 178.51;"
	 fill="#000000" xml:space="preserve">
<path d="M109.211,59.505c19.63,0,37.113,7.973,49.074,20.854l4.6-2.455c-16.561-17.176-40.177-26.375-51.525-24.844
	c-2.452-17.175-9.507-34.045-15.645-46.006l2.765-0.921L99.702,0C69.95,2.149,17.809,0.615,10.143,7.056l7.666,9.508l-1.533,32.818
	C10.94,49.662,5.497,50.141,0,50.758v83.054l3.086-0.084l19.019,8.896l20.243-0.307l4.295-2.146
	c-1.841-5.83-2.762-11.967-2.762-18.097C43.881,87.415,73.018,59.505,109.211,59.505z M28.238,88.027
	c-3.988-23.924-3.682-47.54-1.229-71.464c21.777-5.214,43.555-9.202,65.329-8.894c4.295,12.881,8.896,25.763,13.188,38.645
	C70.871,53.37,60.748,70.24,49.707,86.496C42.651,86.802,35.599,87.415,28.238,88.027z M109.211,65.332
	c-32.817,0-59.195,25.458-59.195,56.744c0,31.28,26.378,56.435,59.195,56.435c32.816,0,59.195-25.152,59.195-56.435
	C168.406,90.79,142.028,65.332,109.211,65.332z"/>
<g>
	<g>
		
			<linearGradient id="SVGID_1_" gradientUnits="userSpaceOnUse" x1="98.7395" y1="575.1162" x2="98.7395" y2="612.5811" gradientTransform="matrix(1 0 0 1 102.625 -538.8701)">
			<stop  offset="0" style="stop-color:#FFFFFF"/>
			<stop  offset="0.75" style="stop-color:#E8C23D"/>
		</linearGradient>
		<path style="fill:url(#SVGID_1_);" d="M237.696,36.308l0.347-0.061c6.912,0,12.521,8.374,12.521,18.701
			c0,10.33-5.607,18.704-12.521,18.704l-0.283,0.06c-0.05,0-72.562,0-72.604,0l-0.464-0.06c-6.919,0-12.526-8.374-12.526-18.704
			c0-10.327,5.607-18.701,12.526-18.701l0.464,0.061c0.038,0,72.542,0,72.579,0"/>
		<path style="fill:#F9CB3E;" d="M250.661,56.349c0,10.324-5.604,18.699-12.516,18.699c-6.913,0-12.519-8.375-12.519-18.699
			c0-10.332,5.604-18.705,12.519-18.705C245.055,37.644,250.661,46.017,250.661,56.349z"/>
		<path style="fill:#000000;" d="M270.238,42.732c-5.452,0.001-10.129,3.292-12.169,7.993c-1.207,0-3.538,0-6.228,0
			c-0.618-3.431-1.821-6.535-3.511-9.063c-2.491-3.732-6.164-6.311-10.433-6.316c-0.349,0-0.69,0.024-1.03,0.058
			c-7.777,0-65.47,0-71.229,0v-0.058c-4.087,0.003-7.629,2.371-10.105,5.846v-0.228c-8.305,0-15.036,6.731-15.036,15.039
			c0,8.305,6.732,15.034,15.036,15.035v-0.347c2.384,3.346,5.752,5.654,9.641,5.831v0.08c0.063,0,72.512,0,72.621-0.004
			l-0.001-0.064c0.035,0,0.07,0.004,0.105,0.004c4.269-0.004,7.942-2.583,10.433-6.317c1.658-2.481,2.852-5.52,3.479-8.881h6.287
			c2.054,4.667,6.711,7.93,12.14,7.929c7.333,0,13.271-5.94,13.271-13.266C283.509,48.672,277.571,42.734,270.238,42.732z
			 M144.287,56.003c0.011-5.487,3.936-10.042,9.132-11.039c-1.4,3.199-2.197,6.953-2.202,10.976
			c0.005,4.077,0.818,7.88,2.256,11.107C148.248,66.071,144.298,61.506,144.287,56.003z M165.638,72.81v-0.061
			c-2.649,0.006-5.237-1.604-7.281-4.636c-2.024-3.014-3.354-7.347-3.352-12.172c-0.003-4.817,1.328-9.153,3.352-12.168
			c1.924-2.855,4.331-4.43,6.816-4.604v0.027c0.028,0,45.257,0,64.281,0c-0.726,0.743-1.393,1.57-1.99,2.466
			c-2.507,3.758-3.979,8.772-3.984,14.278c0.005,5.51,1.479,10.526,3.984,14.281c0.631,0.945,1.336,1.815,2.107,2.589
			C211.717,72.81,170.475,72.81,165.638,72.81z M245.18,68.112c-2.042,3.033-4.631,4.641-7.281,4.637
			c-2.649,0.005-5.237-1.605-7.28-4.637c-2.025-3.014-3.354-7.349-3.349-12.172c-0.005-4.817,1.326-9.155,3.349-12.168
			c1.831-2.718,4.1-4.282,6.458-4.576c0.423,0,0.66,0,0.662,0v-0.049c0.054-0.001,0.106-0.012,0.16-0.012
			c2.65-0.005,5.239,1.605,7.281,4.637c1.26,1.873,2.246,4.259,2.813,6.953c-3.967,0-7.911,0-9.709,0
			c-4.271,0-4.034,10.615,0,10.615h1.788h7.876C247.376,63.958,246.41,66.281,245.18,68.112z M270.238,65.479
			c-5.231-0.01-9.463-4.246-9.479-9.476c0.015-5.235,4.246-9.47,9.479-9.479c5.234,0.007,9.471,4.244,9.479,9.479
			C279.711,61.234,275.472,65.469,270.238,65.479z"/>
	</g>
	<g>
		
			<linearGradient id="SVGID_2_" gradientUnits="userSpaceOnUse" x1="67.5588" y1="600.5449" x2="67.5588" y2="638.0107" gradientTransform="matrix(1 0 0 1 102.625 -538.8701)">
			<stop  offset="0" style="stop-color:#FFFFFF"/>
			<stop  offset="0.75" style="stop-color:#455BA8"/>
		</linearGradient>
		<path style="fill:url(#SVGID_2_);" d="M206.517,61.737l0.351-0.061c6.909,0,12.516,8.374,12.516,18.701
			c0,10.331-5.604,18.704-12.516,18.704l-0.289,0.061c-0.045,0-72.562,0-72.604,0l-0.463-0.061c-6.92,0-12.527-8.373-12.527-18.704
			c0-10.327,5.607-18.701,12.527-18.701l0.463,0.061c0.04,0,72.544,0,72.577,0"/>
		<path style="fill:#455BA8;" d="M218.661,80.349c0,10.324-5.604,18.699-12.516,18.699c-6.913,0-12.519-8.375-12.519-18.699
			c0-10.332,5.604-18.705,12.519-18.705C213.055,61.644,218.661,70.017,218.661,80.349z"/>
		<path style="fill:#000000;" d="M238.476,67.138c-5.395,0-10.023,3.223-12.101,7.843c-1.294,0-3.65,0-6.324,0
			c-0.627-3.372-1.819-6.422-3.482-8.912c-2.491-3.735-6.162-6.313-10.422-6.319c-0.349,0-0.69,0.024-1.03,0.058
			c-7.765,0-65.463,0-71.245,0V59.75c-4.088,0.005-7.628,2.371-10.106,5.849v-0.227c-8.306,0-15.037,6.732-15.04,15.034
			c0.004,8.306,6.734,15.036,15.04,15.036v-0.348c2.384,3.342,5.75,5.653,9.642,5.83v0.079c0.063,0,72.523,0,72.634-0.002
			l-0.001-0.065c0.036,0,0.072,0.004,0.108,0.004c4.26-0.004,7.931-2.584,10.422-6.316c1.682-2.52,2.883-5.611,3.504-9.031h6.188
			c2.021,4.749,6.728,8.082,12.216,8.083c7.333-0.002,13.267-5.945,13.271-13.267C251.745,73.079,245.809,67.14,238.476,67.138z
			 M112.518,80.406c0.009-5.485,3.936-10.039,9.13-11.034c-1.401,3.198-2.196,6.952-2.201,10.977
			c0.004,4.074,0.817,7.876,2.253,11.102C116.481,90.476,112.527,85.914,112.518,80.406z M133.872,97.213v-0.06
			c-2.65,0.008-5.238-1.603-7.283-4.637c-2.026-3.011-3.354-7.352-3.35-12.167c-0.004-4.822,1.323-9.158,3.35-12.17
			c1.925-2.858,4.33-4.43,6.816-4.604V63.6c0.028,0,45.284,0,64.307,0c-0.726,0.744-1.393,1.572-1.988,2.469
			c-2.514,3.757-3.987,8.773-3.989,14.278c0.002,5.506,1.475,10.522,3.989,14.277c0.629,0.943,1.335,1.814,2.105,2.589
			C179.974,97.213,138.711,97.213,133.872,97.213z M213.418,92.513c-2.045,3.038-4.629,4.644-7.271,4.641
			c-2.645,0.004-5.229-1.603-7.271-4.641c-2.028-3.007-3.354-7.348-3.354-12.166c0-4.822,1.325-9.156,3.354-12.168
			c1.836-2.732,4.111-4.293,6.476-4.579c0.404,0,0.632,0,0.634,0v-0.047c0.055-0.001,0.107-0.012,0.163-0.012
			c2.642-0.005,5.226,1.6,7.271,4.638c1.235,1.837,2.205,4.17,2.777,6.802c-3.872,0-7.675,0-9.43,0c-4.271,0-4.035,10.612,0,10.612
			h1.785h7.673C215.655,88.275,214.671,90.649,213.418,92.513z M238.476,89.885c-5.231-0.011-9.47-4.247-9.479-9.476
			c0.009-5.235,4.246-9.469,9.479-9.479c5.235,0.009,9.469,4.244,9.479,9.479C247.946,85.639,243.712,89.874,238.476,89.885z"/>
	</g>
	<g>
		<path style="fill:#CB5933;" d="M186.764,104.972c0,10.33-5.605,18.705-12.524,18.705c-6.914,0-12.521-8.375-12.521-18.705
			c0-10.324,5.604-18.697,12.521-18.697C181.156,86.274,186.764,94.646,186.764,104.972z"/>
		
			<linearGradient id="SVGID_3_" gradientUnits="userSpaceOnUse" x1="35.6541" y1="625.1738" x2="35.6541" y2="662.6396" gradientTransform="matrix(1 0 0 1 102.625 -538.8701)">
			<stop  offset="0" style="stop-color:#FFFFFF"/>
			<stop  offset="0.75" style="stop-color:#CB5933"/>
		</linearGradient>
		<path style="fill:url(#SVGID_3_);" d="M174.611,86.364l0.35-0.06c6.918,0,12.523,8.373,12.523,18.703
			c0,10.329-5.605,18.7-12.523,18.7l-0.285,0.063c-0.045,0-72.566,0-72.611,0l-0.463-0.063c-6.921,0-12.527-8.371-12.527-18.7
			c0-10.33,5.606-18.703,12.527-18.703l0.463,0.06c0.039,0,72.549,0,72.586,0"/>
		<path style="fill:#000000;" d="M206.583,91.767c-5.44,0-10.11,3.277-12.16,7.965c-1.431,0-3.716,0-6.241,0
			c-0.62-3.42-1.822-6.514-3.507-9.035c-2.489-3.735-6.164-6.311-10.435-6.313c-0.351,0-0.696,0.024-1.039,0.058
			c-7.792,0-65.443,0-71.24,0v-0.058c-4.087,0.002-7.627,2.367-10.105,5.843v-0.227c-8.307,0-15.037,6.729-15.04,15.036
			c0.003,8.305,6.733,15.036,15.04,15.034v-0.344c2.383,3.344,5.749,5.65,9.637,5.834v0.076c0.066,0,72.529,0,72.644-0.001
			l-0.001-0.067c0.036,0,0.07,0.004,0.106,0.004c4.272-0.006,7.946-2.58,10.435-6.321c1.663-2.485,2.857-5.534,3.484-8.907h6.266
			c2.051,4.686,6.721,7.965,12.158,7.965c7.329,0,13.265-5.947,13.269-13.271C219.846,97.704,213.91,91.767,206.583,91.767z
			 M80.609,105.034c0.009-5.484,3.932-10.038,9.13-11.036c-1.402,3.198-2.198,6.953-2.201,10.974
			c0.003,4.079,0.816,7.883,2.252,11.107C84.568,115.104,80.619,110.541,80.609,105.034z M101.961,121.843v-0.062
			c-2.65,0.012-5.237-1.599-7.285-4.634c-2.025-3.016-3.354-7.351-3.35-12.174c-0.004-4.817,1.325-9.152,3.35-12.166
			c1.927-2.854,4.33-4.427,6.815-4.603v0.023c0.032,0,45.281,0,64.308,0c-0.726,0.744-1.393,1.571-1.989,2.466
			c-2.509,3.758-3.981,8.772-3.986,14.275c0.005,5.512,1.478,10.526,3.986,14.277c0.631,0.947,1.337,1.818,2.108,2.594
			C148.065,121.843,106.812,121.843,101.961,121.843z M181.521,117.144c-2.046,3.037-4.63,4.642-7.282,4.64
			c-2.65,0.004-5.237-1.603-7.279-4.64c-2.026-3.013-3.354-7.348-3.346-12.172c-0.008-4.818,1.32-9.152,3.346-12.166
			c1.834-2.725,4.108-4.287,6.474-4.577c0.41,0,0.642,0,0.644,0v-0.048c0.055-0.001,0.108-0.012,0.163-0.012
			c2.651-0.004,5.235,1.605,7.282,4.637c1.255,1.867,2.238,4.243,2.808,6.926c-3.73,0-7.336,0-9.031,0c-4.271,0-4.031,10.61,0,10.61
			h1.788h7.212C183.725,112.974,182.755,115.308,181.521,117.144z M206.584,114.513c-5.232-0.013-9.472-4.25-9.478-9.479
			c0.006-5.233,4.245-9.469,9.478-9.477c5.232,0.008,9.466,4.242,9.478,9.477C216.05,110.265,211.814,114.5,206.584,114.513z"/>
	</g>
</g>
</svg>
