<?xml version="1.0" encoding="utf-8"?>
<!-- Generator: Adobe Illustrator 13.0.2, SVG Export Plug-In . SVG Version: 6.00 Build 14948)  -->
<!DOCTYPE svg PUBLIC "-//W3C//DTD SVG 1.0//EN" "http://www.w3.org/TR/2001/REC-SVG-20010904/DTD/svg10.dtd">
<svg version="1.0" id="Ebene_1" xmlns="http://www.w3.org/2000/svg" xmlns:xlink="http://www.w3.org/1999/xlink" x="0px" y="0px"
	 width="255.079px" height="123.311px" viewBox="0 0 255.079 123.311" enable-background="new 0 0 255.079 123.311"
	 fill="#000000" xml:space="preserve">
<path d="M109.102,70.704l6.089-0.338l9.81,4.736h10.826l2.029-1.354c-0.677-3.045-1.354-6.09-1.354-9.472
	c0-18.269,15.562-33.153,34.506-33.153c10.488,0,19.621,4.398,25.711,11.164l2.705-1.353c-8.795-9.135-21.313-13.87-27.4-12.855
	c-1.354-9.134-5.074-18.268-8.119-24.356l1.354-0.678L165.936,0c-15.563,1.016-42.964,0.338-47.023,3.722l3.721,5.074l-0.676,17.253
	c-18.269,1.016-39.243,5.751-56.496,11.841c-3.722,1.353-5.075,3.044-4.398,4.735l3.383,8.119
	c4.736-3.721,10.826-6.089,17.591-6.089c14.885,0,27.064,11.502,27.064,25.71C109.102,70.366,109.102,70.366,109.102,70.704
	L109.102,70.704z M127.708,8.796c11.501-3.045,23.003-5.074,34.505-4.735c2.029,6.766,4.397,13.531,6.767,20.298
	c-18.269,3.721-23.342,12.517-29.433,20.974c-3.721,0.338-7.441,0.677-11.162,1.016C126.017,33.83,126.355,21.313,127.708,8.796
	L127.708,8.796z"/>
<path d="M82.038,47.023c13.532,0,24.357,10.487,24.357,23.343c0,12.854-10.826,23.342-24.357,23.342
	c-13.531,0-24.357-10.487-24.357-23.342C57.681,57.51,68.506,47.023,82.038,47.023L82.038,47.023z"/>
<path d="M171.01,34.506c17.253,0,31.461,13.194,31.461,29.771c0,16.576-14.208,29.77-31.461,29.77
	c-17.254,0-31.124-13.193-31.124-29.77C139.886,47.7,153.756,34.506,171.01,34.506L171.01,34.506z"/>
<rect x="9.643" y="118.065" width="237.82" height="4.06"/>
<path fill="#FFFFFF" d="M4.907,106.902L49.9,66.306c6.089-4.398,14.885-3.045,19.283,2.706c4.736,6.09,3.383,14.885-2.707,19.282
	l-51.759,31.801l0,0c-4.06,2.367-8.796,1.69-11.502-1.691C0.847,115.02,1.524,110.285,4.907,106.902L4.907,106.902z"/>
<path d="M3.892,105.548l44.994-40.596l2.368,2.706L6.26,108.254L3.892,105.548z M48.885,64.953L48.885,64.953l1.015,1.354
	L48.885,64.953z M48.885,64.953L48.885,64.953l2.368,3.045l0,0L48.885,64.953z M48.885,64.953L48.885,64.953l1.015,1.354
	L48.885,64.953z M48.885,64.953c3.383-2.706,7.781-3.721,11.502-3.044l-0.338,3.721c-3.044-0.338-6.089,0.339-8.795,2.368
	L48.885,64.953z M60.387,61.908c4.06,0.676,7.781,2.706,10.487,6.089l-3.045,2.368c-2.03-2.707-4.736-4.398-7.781-4.736
	L60.387,61.908z M70.875,67.998L70.875,67.998l-3.045,2.368l0,0L70.875,67.998z M67.83,70.366L67.83,70.366l1.354-1.354
	L67.83,70.366z M70.875,67.998L70.875,67.998l-3.045,2.368l0,0L70.875,67.998z M70.875,67.998L70.875,67.998l-1.691,1.016
	L70.875,67.998z M70.875,67.998c0.676,1.016,1.353,2.03,1.691,3.044l-3.383,1.691c-0.338-1.015-1.015-1.691-1.354-2.367
	L70.875,67.998z M72.566,71.042c0.338,1.017,0.677,2.03,1.015,3.385l-3.721,0.677c0-1.017-0.338-1.691-0.676-2.369L72.566,71.042z
	 M73.581,74.425c1.015,5.752-1.015,11.841-6.089,15.563l-2.03-3.045c3.721-3.045,5.413-7.442,4.397-11.84L73.581,74.425z
	 M67.492,89.987L67.492,89.987L67.492,89.987l-1.015-1.691L67.492,89.987z M67.492,89.987l-51.759,31.8l-1.691-3.383l51.421-31.8
	L67.492,89.987z M15.732,121.787l-1.354,0.677l-1.015-1.354l1.353-1.015L15.732,121.787z M13.364,121.11L13.364,121.11l3.044-2.368
	v0.338L13.364,121.11z M14.041,118.404l1.353-1.015l1.015,1.353l-1.691,1.354L14.041,118.404z M15.732,121.787L15.732,121.787
	l-1.691-3.383l0,0L15.732,121.787z M15.732,121.787L15.732,121.787l-1.015-1.69L15.732,121.787z M15.732,121.787
	c-0.677,0.338-1.354,0.677-2.03,0.677l-1.354-3.384c0.677-0.338,1.015-0.338,1.692-0.676L15.732,121.787z M13.703,122.463
	c-0.677,0.339-1.354,0.677-2.03,0.677l-0.677-3.722c0.338,0,1.015-0.339,1.353-0.339L13.703,122.463z M11.673,123.139
	c-3.721,0.677-7.442-0.677-9.811-3.722l3.045-2.028c1.354,1.689,3.721,2.366,6.089,2.028L11.673,123.139z M1.862,119.418
	L1.862,119.418l1.354-1.015L1.862,119.418z M1.862,119.418L1.862,119.418l3.045-2.028l0,0L1.862,119.418z M4.907,117.389
	L4.907,117.389l-1.691,1.015L4.907,117.389z M1.862,119.418c-0.338-0.339-0.676-1.015-1.015-1.69l3.383-1.691
	c0.338,0.676,0.338,1.016,0.676,1.354L1.862,119.418z M0.847,117.727c-0.338-0.678-0.676-1.354-0.676-2.03l3.721-0.677
	c0,0.339,0.339,0.677,0.339,1.016L0.847,117.727z M0.171,115.697c-0.677-3.383,0.676-7.442,3.721-10.148l2.369,2.706
	c-1.692,2.03-2.707,4.397-2.369,6.767L0.171,115.697z M6.598,105.886l1.015,1.354l-1.353,1.015l-1.354-1.353L6.598,105.886z
	 M3.554,108.254v-0.338l3.044-2.029l0,0L3.554,108.254z M3.554,107.917l-1.015-1.354l1.353-1.016l1.015,1.354L3.554,107.917z"/>
<path d="M10.658,109.608c1.015-1.017,2.707-0.677,3.721,0.677c1.015,1.015,0.677,2.706-0.676,3.721
	c-1.015,1.016-2.707,0.678-3.721-0.676C8.966,112.314,9.305,110.623,10.658,109.608L10.658,109.608z"/>
<path d="M56.328,73.072c2.03-1.354,4.736-1.015,6.428,1.015c1.353,2.03,1.015,4.736-1.015,6.091c-2.03,1.69-4.736,1.354-6.089-0.678
	C53.96,77.47,54.298,74.763,56.328,73.072L56.328,73.072z"/>
<path fill="#FFFFFF" d="M250.17,106.902l-44.993-40.596c-6.089-4.398-14.886-3.045-19.282,2.706
	c-4.736,6.09-3.383,14.885,2.706,19.282l51.76,31.801l0,0c4.06,2.367,8.795,1.69,11.502-1.691
	C254.231,115.02,253.554,110.285,250.17,106.902L250.17,106.902z"/>
<path d="M248.818,108.254l-44.993-40.596l2.368-2.706l44.993,40.596L248.818,108.254z M206.193,64.953L206.193,64.953l-1.016,1.354
	L206.193,64.953z M203.825,67.998L203.825,67.998l2.368-3.045l0,0L203.825,67.998z M206.193,64.953L206.193,64.953l-1.016,1.354
	L206.193,64.953z M203.825,67.998c-2.707-2.029-5.751-2.707-8.796-2.368l-0.338-3.721c3.722-0.677,8.119,0.338,11.502,3.044
	L203.825,67.998z M195.029,65.629c-3.045,0.338-5.751,2.029-7.78,4.736l-3.045-2.368c2.707-3.383,6.428-5.413,10.487-6.089
	L195.029,65.629z M187.249,70.366L187.249,70.366l-3.045-2.368l0,0L187.249,70.366z M187.249,70.366L187.249,70.366l-1.354-1.354
	L187.249,70.366z M187.249,70.366L187.249,70.366l-3.045-2.368l0,0L187.249,70.366z M184.204,67.998L184.204,67.998l1.691,1.016
	L184.204,67.998z M187.249,70.366c-0.338,0.676-1.016,1.354-1.354,2.367l-3.383-1.691c0.338-1.014,1.015-2.028,1.691-3.044
	L187.249,70.366z M185.895,72.733c-0.338,0.678-0.677,1.354-0.677,2.369l-3.722-0.678c0.338-1.354,0.676-2.367,1.016-3.384
	L185.895,72.733z M185.218,75.102c-1.015,4.396,0.677,8.795,4.397,11.84l-2.029,3.045c-5.074-3.722-7.104-9.811-6.09-15.563
	L185.218,75.102z M187.586,89.987L187.586,89.987L187.586,89.987l1.015-1.691L187.586,89.987z M189.618,86.604l51.42,31.8
	l-1.691,3.383l-51.76-31.8L189.618,86.604z M241.713,121.11l-1.016,1.354l-1.354-0.677l1.016-1.69L241.713,121.11z M238.668,119.08
	v-0.338l3.045,2.368l0,0L238.668,119.08z M238.668,118.742l1.016-1.353l1.354,1.015l-0.677,1.691L238.668,118.742z M241.038,118.404
	L241.038,118.404l-1.691,3.383l0,0L241.038,118.404z M239.345,121.787L239.345,121.787l1.016-1.69L239.345,121.787z
	 M241.038,118.404c0.676,0.338,1.016,0.338,1.691,0.676l-1.354,3.384c-0.678,0-1.354-0.339-2.03-0.677L241.038,118.404z
	 M242.729,119.08c0.338,0,1.016,0.339,1.354,0.339l-0.678,3.722c-0.676,0-1.353-0.338-2.029-0.677L242.729,119.08z M244.083,119.418
	c2.367,0.338,4.735-0.339,6.09-2.028l3.043,2.028c-2.366,3.045-6.088,4.397-9.811,3.722L244.083,119.418z M253.215,119.418
	L253.215,119.418l-1.354-1.015L253.215,119.418z M250.17,117.389L250.17,117.389l3.045,2.028l0,0L250.17,117.389z M250.17,117.389
	L250.17,117.389l1.691,1.015L250.17,117.389z M250.17,117.389c0.338-0.34,0.338-0.679,0.678-1.354l3.383,1.691
	c-0.339,0.677-0.677,1.353-1.016,1.69L250.17,117.389z M250.848,116.036c0-0.339,0.338-0.677,0.338-1.016l3.723,0.677
	c0,0.677-0.34,1.354-0.678,2.03L250.848,116.036z M251.186,115.02c0.338-2.368-0.678-4.735-2.368-6.767l2.368-2.706
	c3.045,2.706,4.396,6.767,3.723,10.148L251.186,115.02z M248.818,108.254l-1.354-1.015l1.017-1.354l1.69,1.016L248.818,108.254z
	 M248.48,105.886L248.48,105.886l3.044,2.029v0.338L248.48,105.886z M251.186,105.548l1.354,1.016l-1.016,1.354l-1.354-1.015
	L251.186,105.548z"/>
<path d="M244.42,109.608c-1.017-1.017-2.707-0.677-3.723,0.677c-1.015,1.015-0.677,2.706,0.678,3.721
	c1.015,1.016,2.705,0.678,3.721-0.676C246.111,112.314,245.773,110.623,244.42,109.608L244.42,109.608z"/>
<path d="M198.75,73.072c-2.03-1.354-4.736-1.015-6.429,1.015c-1.354,2.03-1.015,4.736,1.015,6.091
	c2.029,1.69,4.736,1.354,6.09-0.678C201.118,77.47,200.78,74.763,198.75,73.072L198.75,73.072z"/>
</svg>
