<?xml version="1.0" encoding="utf-8"?>
<!-- Generator: Adobe Illustrator 14.0.0, SVG Export Plug-In . SVG Version: 6.00 Build 43363)  -->
<!DOCTYPE svg PUBLIC "-//W3C//DTD SVG 1.1//EN" "http://www.w3.org/Graphics/SVG/1.1/DTD/svg11.dtd">
<svg version="1.1" id="Ebene_1" xmlns="http://www.w3.org/2000/svg" xmlns:xlink="http://www.w3.org/1999/xlink" x="0px" y="0px"
	 width="800px" height="800px" viewBox="-381.075 -382.167 800 800" enable-background="new -381.075 -382.167 800 800"
	 xml:space="preserve">
<polygon fill="#000000" points="-104.76,16.668 -255.968,129.074 -254.442,154.977 -91.809,34.083 "/>
<path fill="#000000" d="M154.213-63.271h-40.228c-7.579,0-13.687,4.17-13.687,9.321v164.349
	c20.155-15.33,42.487-29.809,67.601-43.186V-53.95C167.899-59.101,161.768-63.271,154.213-63.271z"/>
<path opacity="0.5" fill="#000000" d="M-381.001,245.091c0-72.09-0.073-144.167-0.073-216.281
	c18.114-1.459,36.069-2.686,53.901-3.643l11.811-252.473l-58.979-73.144c58.979-49.56,460.095-37.75,689.021-54.282l-9.419,47.193
	l-21.242,7.089c47.193,92.006,101.45,221.812,120.338,353.948c4.562-0.602,9.517-0.884,14.569-1.055l-0.049,51.571
	c-10.253-0.552-20.604-0.933-31.053-0.933c-206.139,0-382.438,117.75-460.132,287.095c-10.78,0-216.587,0.05-308.717,0.074
	C-381.05,341.855-381.001,293.485-381.001,245.091z M-235.142,322.479c56.637-4.71,110.894-9.419,165.2-11.774
	C14.976,185.658,92.842,55.864,359.517,1.583c-33.04-99.108-68.459-198.228-101.45-297.311
	c-167.542-2.367-335.097,28.281-502.627,68.422C-263.448-43.255-265.839,138.44-235.142,322.479z"/>
<path opacity="0.5" fill="#000000" d="M418.827,390.397l-438.939-0.221c74.396-143.492,228.631-242.293,407.936-242.293
	c10.449,0,20.751,0.393,31.004,1.03V390.397z"/>
<path fill="#000000" d="M131.205-245.322c-45.845,0-83.029,37.173-83.029,83.042c0,45.856,37.185,83.029,83.029,83.029
	c45.868,0,83.054-37.173,83.054-83.029C214.259-208.149,177.073-245.322,131.205-245.322z"/>
<path fill="#000000" d="M-147.514-63.639c-7.494,4.795,10.866,46.923,41,94.104c30.133,47.192,60.647,81.557,68.141,76.774
	c7.493-4.783-10.866-46.924-41-94.104C-109.519-34.045-140.02-68.422-147.514-63.639z"/>
<polygon fill="#000000" points="70.466,135.03 -64.546,135.03 -193.368,319.007 -121.887,313.595 -36.839,192.134 15.58,192.134 "/>
<rect x="-102.51" y="-22.796" transform="matrix(0.9659 -0.2588 0.2588 0.9659 0.6694 2.0766)" fill="#000000" width="221.463" height="42.584"/>
</svg>
