<?xml version="1.0" encoding="UTF-8" standalone="no"?>
<!-- Created with Inkscape (http://www.inkscape.org/) -->

<svg
   xmlns:dc="http://purl.org/dc/elements/1.1/"
   xmlns:cc="http://creativecommons.org/ns#"
   xmlns:rdf="http://www.w3.org/1999/02/22-rdf-syntax-ns#"
   xmlns:svg="http://www.w3.org/2000/svg"
   xmlns="http://www.w3.org/2000/svg"
   version="1.1"
   width="200"
   height="200"
   viewBox="0 0 200 200"
   id="Ebene_1"
   xml:space="preserve"><metadata
     id="metadata17"><rdf:RDF><cc:Work
         rdf:about=""><dc:format>image/svg+xml</dc:format><dc:type
           rdf:resource="http://purl.org/dc/dcmitype/StillImage" /><dc:title></dc:title></cc:Work></rdf:RDF></metadata><defs
     id="defs15" /><path
     d="M 94.426,110.198 V 87.84 C 94.214,87.797 94.009,87.758 93.8,87.719 92.317,87.51 89.697,86.996 86.441,86.323 63.114,81.964 53.365,81.288 52.478,81.099 52.135,81.026 51.904,80.542 51.752,79.953 50.648,79.8 49.692,79.699 48.921,79.654 40.678,79.184 35.32,79.742 30.671,80.31 v 0.001 c -1.311,0.22 -2.497,0.574 -3.573,1.033 -0.757,0.247 -1.423,0.465 -1.423,0.465 v 0.069 c -0.023,0.004 -0.05,0.008 -0.073,0.01 v -0.001 l -0.381,0.088 c -0.11,0.019 -0.213,0.037 -0.326,0.058 -6.073,1.162 -9.801,3.171 -11.928,4.745 -0.814,0.525 -1.667,1.225 -2.271,2.1 -0.097,0.119 -0.142,0.19 -0.142,0.19 0,0 0.01,-0.008 0.023,-0.01 l -0.005,0.006 c -0.008,0.004 -0.018,0.008 -0.018,0.008 L 10.52,89.151 C 10.17,89.73 9.932,90.38 9.887,91.104 v 0.058 h 0.235 l -0.003,0.009 H 9.887 C 9.81,91.56 9.741,92.073 9.683,92.672 L 9.919,92.67 9.773,93.866 h 0.002 l -0.002,0.01 H 9.584 C 9.551,94.342 9.521,94.829 9.5,95.312 h 0.246 v 1.214 l 0,0 v 0.012 H 9.445 c -0.016,0.421 -0.029,0.83 -0.042,1.213 L 9.397,97.201 9.249,97.37 v -0.044 l -0.382,0.478 -0.053,0.062 v 0.002 0.028 4.413 0.026 0.002 l 0,0 0.034,0.037 0.401,0.501 v -0.045 l 0.148,0.169 0.006,-0.545 c 0.013,0.382 0.026,0.789 0.042,1.213 h 0.301 v 1.224 l 0,0 v 0.004 H 9.5 c 0.021,0.483 0.051,0.967 0.084,1.433 h 0.188 l 0.148,1.208 H 9.683 c 0.058,0.595 0.127,1.109 0.204,1.498 0.034,0.51 0.163,0.982 0.358,1.42 0.044,0.165 0.128,0.336 0.242,0.513 l 0.067,0.154 c 0,0 0.149,0.224 0.484,0.591 0.375,0.441 0.807,0.834 1.255,1.174 1.97,1.623 5.823,3.973 12.591,5.268 0.275,0.063 0.536,0.123 0.791,0.173 v 0.065 c 0,0 0.32,0.105 0.769,0.252 1.243,0.609 2.645,1.073 4.227,1.338 4.65,0.564 10.007,1.125 18.25,0.65 0.771,-0.041 1.73,-0.145 2.841,-0.296 0.149,-0.576 0.377,-1.042 0.715,-1.114 0.87,-0.185 10.36,-0.839 32.637,-4.977 4.241,-0.889 7.608,-1.559 9.131,-1.729 0.059,-0.012 0.12,-0.024 0.179,-0.037 v -0.114 h 0.006 l -0.004,-2.167 z m 73.178,-10.087 c 0,-9.866 -1.467,-18.544 -1.676,-19.729 l 0.234,-0.507 0.002,-0.001 -0.002,-0.002 -0.01,-0.063 0.045,-0.08 v -0.002 l 0,0 c 0,0 -0.211,-1.34 -0.434,-2.731 l -0.354,-2.562 c -0.064,-0.666 -0.299,-1.027 -0.502,-1.229 -0.165,-0.233 -0.318,-0.371 -0.318,-0.371 l -2.094,-2.253 c -14.455,-4.111 -23.568,-4.454 -34.223,-4.454 -10.66,0 -24.43,3.63 -24.43,3.63 l 0,0 -0.354,0.185 c -3.429,0.792 -5.71,1.391 -5.71,1.391 l -2.654,2.218 0.789,10.419 1.443,0.488 1.653,1.272 c -0.076,2.726 -0.243,9.4 -0.243,14.38 0,4.983 0.167,11.658 0.243,14.384 l -1.653,1.273 -1.443,0.489 -0.789,10.415 2.654,2.221 c 0,0 2.282,0.599 5.71,1.39 l 0.354,0.184 0,0 c 0,0 13.77,3.632 24.43,3.632 10.654,0 19.768,-0.343 34.223,-4.453 l 2.094,-2.254 c 0,0 0.153,-0.138 0.318,-0.371 0.203,-0.199 0.438,-0.563 0.502,-1.229 l 0.355,-2.566 c 0.221,-1.391 0.432,-2.727 0.432,-2.727 l 0,0 v -0.003 l -0.045,-0.077 0.009,-0.064 0.002,-0.002 h -0.002 l -0.233,-0.509 c 0.21,-1.189 1.677,-9.868 1.677,-19.732 l 0,0 z M 0.347,83.334 H 6.14 v 0.101 l 0.436,0.216 1.276,0.634 2.24,2.548 c 0.524,-0.54 1.142,-1.048 1.862,-1.516 0.11,-0.083 0.228,-0.165 0.349,-0.248 L 7.987,82.139 7.248,82.038 H 6.141 v 0.098 H 0.347 c -0.216,0 -0.347,0.269 -0.347,0.6 0,0.331 0.131,0.598 0.347,0.598 z m 6.69,17.643 -0.001,-1.731 H 6.917 L 6.912,99.244 H 6.908 c -0.083,0 -0.156,0.085 -0.212,0.217 H 3.871 V 99.46 H 2.052 v 0.001 H 0.398 C 0.309,99.46 0.229,99.524 0.169,99.631 v -0.003 l -0.001,0.005 c -0.033,0.058 -0.059,0.126 -0.077,0.199 l -0.005,0.013 c -0.018,0.081 -0.027,0.17 -0.027,0.263 l 0,0 0,0 v 10e-4 c 0,0.362 0.15,0.654 0.34,0.654 h 6.299 c 0.058,0.129 0.131,0.211 0.211,0.211 v 0.002 h 0.128 v 0.001 z m 4.151,13.298 c -0.355,-0.271 -0.673,-0.555 -0.969,-0.846 l -2.366,2.75 -1.276,0.637 -0.436,0.22 v 0.097 H 0.347 l 0,0 c -0.216,0 -0.347,0.27 -0.347,0.6 0,0.33 0.131,0.599 0.347,0.599 L 0.37,118.33 h 5.77 v 0.101 h 1.108 l 0.739,-0.101 4.456,-3.114 c -0.471,-0.325 -0.891,-0.641 -1.255,-0.941 z m 188.095,3.282 c 0,0 -0.021,-0.007 -0.035,-0.011 l -2.325,-0.633 c -0.054,-0.146 -0.142,-0.25 -0.266,-0.284 l -0.054,-0.013 c -0.121,-0.034 -0.254,0.013 -0.375,0.106 l -1.93,-0.524 0.041,-0.146 -1.066,-0.286 -0.039,0.142 -0.094,-0.024 -0.035,0.126 -5.854,-4.364 h -0.001 l 0.106,-0.396 -1.906,-0.798 -2.049,-0.264 -0.104,0.397 -2.321,-0.625 0.096,-0.364 -4.438,-0.957 v -1.854 h -1.643 v -4.415 h 6.462 c 0.818,0 1.52,-0.576 1.813,-1.394 h 2.894 c 0.479,0 0.868,-0.389 0.868,-0.865 0,-0.477 -0.389,-0.865 -0.868,-0.865 h -2.892 c -0.295,-0.822 -0.994,-1.4 -1.814,-1.4 l 0,0 h -6.462 v -4.413 h 1.643 v -1.857 l 4.438,-0.958 -0.096,-0.362 2.322,-0.622 0.104,0.392 2.049,-0.259 1.906,-0.796 -0.106,-0.397 h 10e-4 l 5.854,-4.365 0.035,0.127 0.094,-0.025 0.039,0.141 1.066,-0.288 -0.041,-0.146 1.934,-0.525 c 0.119,0.096 0.25,0.141 0.371,0.106 l 0.054,-0.014 c 0.12,-0.032 0.212,-0.136 0.266,-0.279 l 2.351,-0.639 c 0.004,-0.001 0.006,-0.004 0.006,-0.004 0.592,-0.157 0.828,-0.711 0.677,-1.273 -0.149,-0.562 -0.632,-0.923 -1.216,-0.768 l 0,0 -2.36,0.634 c -0.123,-0.103 -0.255,-0.149 -0.377,-0.118 l -0.058,0.016 c -0.122,0.032 -0.215,0.142 -0.271,0.292 l -1.919,0.513 -0.046,-0.167 -1.072,0.291 0.045,0.166 -0.097,0.024 0.056,0.197 -5.854,4.364 -0.105,-0.393 -2.048,0.265 -1.903,0.791 0.106,0.399 -2.323,0.625 -0.098,-0.364 -3.779,0.033 v -1.146 h -1.281 l 7.125,-5.769 10.041,-0.82 c 0.194,0 0.381,-0.151 0.563,-0.424 l 0.11,-0.003 c 4.566,-4.894 4.236,-6.369 4.545,-13.036 0.123,-2.721 -0.309,-5.229 -0.872,-7.245 v -1.476 h -0.212 v -0.464 h -0.41 c -0.648,-1.79 -1.266,-2.874 -1.266,-2.874 -0.033,-0.162 -0.278,-0.596 -0.701,-1.167 -0.436,-2.536 -1.043,-4.227 -1.76,-4.975 -1.476,-1.534 -16.576,-2.503 -37.022,-2.503 -20.444,0 -35.205,0.617 -37.019,2.503 -1.039,1.083 -1.705,3.239 -2.086,6.513 v -0.231 c 0,-0.21 -0.166,-0.375 -0.377,-0.375 -0.207,0 -0.377,0.165 -0.377,0.375 v 2.219 l -0.121,0.075 v -0.251 h -0.002 v -2.98 H 102.27 V 53.46 h -7.086 v 0.677 H 94.54 c -0.102,-0.655 -0.666,-1.155 -1.348,-1.155 h -2.624 l -2.95,-2.503 -0.164,0.188 -4.603,-3.865 c 1.657,-2.908 1.4,-6.61 1.4,-6.61 l 0,0 -0.002,-0.002 c -0.003,-0.571 -1.623,-0.831 -1.623,-0.831 -0.373,-0.105 -0.77,0.043 -1.484,0.65 -1.111,0.946 -2.363,3.493 -2.363,3.493 -1.223,1.087 -1.348,3.371 -1.107,3.795 0.238,0.42 1.498,1.095 2.112,1.37 0.616,0.272 1.471,0.063 1.471,0.063 l -0.002,-0.003 0.004,0.003 c 0.407,-0.335 0.758,-0.713 1.063,-1.119 l 4.515,3.79 -0.676,0.269 C 85.44,51.122 84.07,51.5 83.002,52.567 v 10e-4 c -1.07,1.066 -1.449,2.439 -0.902,3.16 l -0.004,0.005 0.06,0.063 c 0.013,0.013 0.026,0.029 0.041,0.044 0.013,0.015 0.03,0.023 0.044,0.041 l 2.51,2.511 c -2.213,1.523 -3.675,4.124 -3.675,7.075 0,2.503 1.056,4.749 2.729,6.302 l -0.512,-0.058 -0.445,2.005 -0.825,3.727 -0.214,6.226 c 1.583,0.284 3.234,0.585 4.962,0.909 3.706,0.769 7.466,1.418 7.466,1.418 l -0.954,-13.219 3.666,-3.063 0.384,-0.1 c 0.022,-0.005 2.245,-0.589 5.536,-1.349 l 1.755,-0.929 0.179,0.352 c 3.816,-0.927 14.59,-3.339 23.477,-3.339 10.656,0 19.977,0.334 34.711,4.523 l 0.477,0.136 2.395,2.576 c 0.094,0.093 0.25,0.255 0.416,0.476 0.375,0.412 0.791,1.095 0.904,2.162 l 0.351,2.53 c 0.106,0.684 0.216,1.362 0.296,1.871 l 1.023,0.41 -1.067,1.622 c 0.422,2.548 1.601,10.467 1.601,19.458 0,8.874 -1.148,16.706 -1.587,19.354 l 1.976,1.977 -1.986,0.397 c -0.064,0.448 -0.154,0.994 -0.26,1.661 l -0.346,2.5 c -0.113,1.064 -0.527,1.752 -0.902,2.163 -0.166,0.219 -0.323,0.381 -0.416,0.474 l -2.395,2.577 -0.478,0.138 c -14.734,4.188 -24.056,4.521 -34.711,4.521 -8.888,0 -19.659,-2.412 -23.476,-3.339 l -0.177,0.347 -1.755,-0.919 c -3.294,-0.767 -5.517,-1.347 -5.539,-1.353 l -0.384,-0.102 -3.666,-3.062 0.954,-13.142 c -1.714,0.221 -5.552,1.006 -8.755,1.674 -1.061,0.199 -2.091,0.389 -3.097,0.569 v 4.259 l -1.907,1.651 v 20.371 c 0,1.755 1.182,3.569 3.31,3.569 h 5.12 l -2.326,2.121 0.255,0.297 -4.517,3.789 c -0.305,-0.403 -0.656,-0.783 -1.063,-1.118 l -0.001,0.001 v -0.001 c 0,0 -0.855,-0.208 -1.471,0.067 -0.614,0.272 -1.874,0.945 -2.112,1.367 -0.241,0.422 -0.116,2.709 1.107,3.792 0,0 1.252,2.548 2.363,3.492 0.714,0.608 1.111,0.754 1.484,0.651 0,0 1.62,-0.262 1.623,-0.83 h 0.002 l 0,0 c 0,0 0.257,-3.703 -1.404,-6.612 l 4.607,-3.864 0.164,0.188 3.932,-3.34 h 3.982 l 0,0 3.165,-1.231 0.26,-2.26 c 0.96,0.382 5.076,1.508 6.535,1.61 1.043,0.068 3.352,0.008 5.043,-0.114 l 2.971,1.204 h 1.918 v -2.813 l 0.215,0.127 v 2.221 c 0,0.209 0.17,0.375 0.377,0.375 0.211,0 0.377,-0.166 0.377,-0.375 v -0.232 c 0.381,3.273 1.047,5.431 2.086,6.516 1.813,1.889 16.572,2.499 37.019,2.499 20.447,0 35.548,-0.966 37.022,-2.499 0.718,-0.746 1.324,-2.438 1.761,-4.974 0.422,-0.574 0.668,-1.009 0.7,-1.167 0,0 0.615,-1.086 1.27,-2.883 h 0.406 v -0.459 h 0.212 v -1.475 c 0.563,-2.019 0.996,-4.527 0.872,-7.248 -0.309,-6.666 0.021,-8.141 -4.545,-13.033 l -0.108,-0.004 c -0.183,-0.274 -0.37,-0.425 -0.565,-0.425 l -10.09,-0.825 -7.117,-5.761 h 1.322 v -1.147 l 3.779,0.033 0.098,-0.36 2.323,0.622 -0.106,0.395 1.904,0.792 2.047,0.271 0.105,-0.396 5.854,4.365 -0.056,0.195 0.097,0.029 -0.045,0.163 1.072,0.288 0.046,-0.168 1.921,0.518 c 0.057,0.148 0.147,0.259 0.271,0.291 l 0.058,0.014 c 0.122,0.035 0.254,-0.014 0.377,-0.117 l 2.36,0.635 c 0.584,0.154 1.065,-0.205 1.216,-0.769 0.145,-0.562 -0.092,-1.114 -0.679,-1.269 z M 84.237,40.181 84.121,40.129 c 0.059,0.023 0.102,0.044 0.116,0.052 z m 0,119.855 c -0.014,0.008 -0.063,0.034 -0.129,0.062 l 0.129,-0.062 z m 20.816,-16.059 c -1.744,-0.246 -5.304,-1.231 -6.04,-1.547 l 0.055,-0.496 6.137,0.684 -0.152,1.359 z m 0.211,-1.873 0,0 -6.135,-0.684 0.119,-1.04 6.132,0.685 -0.116,1.039 z m 0.174,-1.547 0,0 -6.131,-0.685 0.065,-0.558 c 0.033,-0.154 0.067,-0.313 0.101,-0.467 l 0.079,0.008 v 0.453 h 2.502 c 1.201,0.342 2.534,0.678 3.428,0.826 l -0.044,0.423 z m 1.237,-0.318 c 0.709,0.026 1.642,0.024 2.574,0.004 l 0.045,0.741 -2.666,-0.299 0.047,-0.446 z m -0.105,0.958 2.758,0.307 0.063,1.063 -2.938,-0.328 0.117,-1.042 z m -0.319,2.856 0.146,-1.305 3.027,0.337 0.057,0.896 c -1.127,0.053 -2.347,0.083 -3.23,0.072 z"
     id="path3"
     style="opacity:0.5;fill:#000000;fill-opacity:1" /><path
     d="m 71.534,47.835 c 0,1.963 -1.592,3.555 -3.557,3.555 H 21.438 c -1.963,0 -3.557,-1.591 -3.557,-3.555 V 30.542 c 0,-1.964 1.594,-3.557 3.557,-3.557 h 46.539 c 1.965,0 3.557,1.593 3.557,3.557 v 17.293 z"
     id="path5"
     style="fill:#000000;fill-opacity:1" /><path
     d="m 71.534,74.303 c 0,1.963 -1.592,3.555 -3.557,3.555 H 21.438 c -1.963,0 -3.557,-1.591 -3.557,-3.555 V 57.009 c 0,-1.963 1.594,-3.557 3.557,-3.557 h 46.539 c 1.965,0 3.557,1.594 3.557,3.557 v 17.294 z"
     id="path7"
     style="fill:#000000;fill-opacity:1" /><path
     d="m 71.534,169.458 c 0,1.964 -1.592,3.558 -3.557,3.558 H 21.438 c -1.963,0 -3.557,-1.594 -3.557,-3.558 v -17.293 c 0,-1.964 1.594,-3.558 3.557,-3.558 h 46.539 c 1.965,0 3.557,1.594 3.557,3.558 v 17.293 z"
     id="path9"
     style="fill:#000000;fill-opacity:1" /><path
     d="m 71.534,143.167 c 0,1.964 -1.592,3.558 -3.557,3.558 H 21.438 c -1.963,0 -3.557,-1.594 -3.557,-3.558 v -17.293 c 0,-1.964 1.594,-3.558 3.557,-3.558 h 46.539 c 1.965,0 3.557,1.594 3.557,3.558 v 17.293 z"
     id="path11"
     style="fill:#000000;fill-opacity:1" /></svg>
