<svg width="218.65" height="253.5" xmlns:xlink="http://www.w3.org/1999/xlink" xmlns="http://www.w3.org/2000/svg">
    <g style="display:inline" transform="translate(-.85 -6)">
        <path id="u" style="display:inline" d="M106.95 6c-6 0-12.02 1.18-17.46 4.12-5.78 3.11-10.52 8.09-13.43 13.97-2.92 5.88-4.06 12.16-4.24 19.08-.33 13.14.3 20.92 1.29 33.41.26 3.8.74 6.02.25 9.93-1.62 8.3-8.88 13.88-12.76 21.17-4.27 8.04-6.07 17.13-9.29 25.65-2.95 7.79-7.09 15.1-9.88 22.95-2.565 7.195-3.92 14.86-3.842 22.488a7.49 7.49 0 0 1 1.947.101c1.327.244 2.582.821 3.692 1.57 2.228 1.516 3.88 3.719 5.459 5.903a260.186 260.186 0 0 1 4.433 6.295c-2.584-8.692-3.346-17.929-2.459-26.967.91-9.32 3.5-18.44 7.28-27.01 6.746-9.529 7.158-15.985 9.89-25.8 1.53-5.13 4.67-9.61 7.78-13.97 1.79-2.51 3.62-5.1 4.44-8.08.77-2.79.59-5.73.7-8.62.06-1.45.19-2.9.54-4.3.155-.604.374-1.193.62-1.767-.227-.187-.44-.393-.592-.643a2.225 2.225 0 0 1-.195-.478c-.018-.038-.038-.076-.05-.115a1.51 1.51 0 0 1-.06-.426c-.008-.29.058-.57.118-.85.153-.756.238-1.52.484-2.252.306-.918.869-1.743 1.48-2.5a17.699 17.699 0 0 1 1.782-1.87c-.09-.02-.18-.037-.268-.06-1.35-.33-1.811-.78-2.781-1.77-.97-1-1.947-2.367-2.467-3.667-1.04-2.58-1.77-5.572-1.97-8.342-.22-3.07-.441-6.078.529-8.998.49-1.45 1.28-2.602 2.41-3.652a6.553 6.553 0 0 1 4.12-1.764c1.15-.06 2.31.23 3.35.74 1.03.51 1.95 1.079 2.75 1.909 1.66 1.71 2.85 3.544 3.6 5.804.648 1.978.924 4.06 1.02 6.143-.543 1.93-2.09 2.909-3.527 4.623-.85.96-1.823 2.356-2.633 3.346-.4.5-.76 1.029-1.01 1.619a4.318 4.318 0 0 0-.385 1.676 20.357 20.357 0 0 1 6.987-4.776c-.005.017-.005.034-.01.051.345-.142.678-.315 1.031-.437.954-.332 1.938-.59 2.936-.76.498-.085.999-.149 1.502-.188a15.237 15.237 0 0 1 1.51-.04c.602.013 1.203.064 1.798.156a12.84 12.84 0 0 1 1.766.398c.688.212 1.357.483 2.011.785a37.31 37.31 0 0 1 1.934.975l.057.03c1.213.653 2.417 1.33 3.656 1.94.4.2.807.391 1.215.577-.156-.569.125-2.03-.245-2.49-1.719-1.436-3.353-2.47-5.03-3.938-.76-.96-1.094-1.119-1.624-2.229-.423-.884-1.037-1.504-1.414-2.73-.298-1.917-.233-3.632.524-5.738.98-2.74 3-5.643 5.39-7.293.75-.51 1.531-.883 2.371-1.213 1.48-.57 3.1-.74 4.67-.52 1.57.22 3.08.734 4.4 1.594 2.66 1.72 4.54 4.022 5.58 7.012.96 2.75 1.24 5.559 1.08 8.459-.13 2.29-.54 4.58-1.5 6.66-.96 2.07-2.51 3.918-4.53 4.978a8.835 8.835 0 0 1-.823.366c.173.06.352.103.52.177.612.272 1.199.665 1.539 1.243.164.279.26.598.268.925.118.158.225.324.31.502.374.808.356 1.744.203 2.62-.153.875-.433 1.725-.56 2.601-.007.049-.012.1-.018.148.065.06.138.108.201.168 1.46 1.39 2.52 3.132 3.39 4.942.86 1.81 1.54 3.708 2.32 5.558 1.9 4.5 4.39 8.73 6.44 13.18 2.524 13.668 9.193 21.172 14.88 32.47 6.74 13.93 6.68 30.17 4.85 45.53-.14 1.163-.336 2.328-.503 3.494 2.091.296 4.181.605 6.223 1.147 1.76.46 3.48 1.08 5.23 1.56 2.385.641 4.855 1.005 7.309.936.04-.123.09-.242.13-.365 4.01-12.3 4.751-25.551 3.061-38.381-1.69-12.83-5.761-25.27-11.111-37.05-6.72-14.759-12.369-20.1-16.469-33.07-4.42-14.02-.77-24.61-4.06-37.32-1.17-4.32-3.04-8.45-5.45-12.23-2.82-4.43-6.4-8.391-10.65-11.47C124.13 8.62 115.61 6 106.95 6Zm38.816 200.4c-1.674 1.876-3.462 3.66-5.266 5.41-5.48 5.31-11.17 10.56-17.91 14.15-12.89 6.87-29.09 6.86-42.2.41a49.169 49.169 0 0 1-8.173-5.079c.25.325.507.645.752.975 1.949 2.635 3.673 5.486 4.539 8.644 1.128 4.106.687 8.627-1.262 12.408-.202.393-.425.774-.658 1.149 2.614-.64 5.233-1.249 7.861-1.797 13.14-2.69 27.8-1.61 39.99.15 4.13.63 8.231 1.44 12.291 2.43 2.302.557 4.605 1.14 6.91 1.703-.88-2.164-1.12-4.588-1.12-6.953-.01-5.23.96-10.41 1.87-15.57.76-4.29 1.48-8.58 1.95-12.91.184-1.703.32-3.41.426-5.12z"/>
        <g style="display:inline">
            <path id="v" style="display:inline" d="M71.48 91.84c-1.21 2.3-5.965 5.853-8.355 8.853-12.875 14.606-17.045 29.65-18.327 34.03-1.654 5.69-8.64 18.88-11.429 24.117-1.5 2.81-3.019 5.67-3.539 8.81-.41 2.48-.18 5.04.46 7.47.562 2.17 1.436 4.25 2.435 6.259.791-.905 1.74-1.684 2.85-2.139 1.245-.514 2.643-.615 3.96-.37 1.327.243 2.582.82 3.692 1.57 2.228 1.515 3.88 3.718 5.459 5.902 3.636 5 7.13 10.106 10.306 15.412 2.294 3.848 4.418 7.802 6.963 11.475.2.093.395.198.596.29 2.4 1.09 4.918 2.072 7.558 2.112 1.32.03 2.652-.19 3.862-.72 1.2-.53 2.28-1.381 3-2.491.88-1.36 1.18-3.05 1-4.66-.18-1.61-.81-3.15-1.65-4.53-2.06-3.38-5.31-5.83-8.44-8.25a283.381 283.381 0 0 1-19.55-16.58c-1.76-1.65-3.53-3.34-4.76-5.42-1.2-2.02-1.852-4.32-2.292-6.63-1.21-6.33-.9-12.99 1.25-19.07.85-2.38 1.961-4.65 3.041-6.93 1.86-3.95 3.62-7.98 6.07-11.6 3.05-4.51 7.13-8.33 9.61-13.17 2.1-4.09 2.95-8.68 3.76-13.2.64-3.54 1.85-7 2.47-10.54z"/>
            <path id="w" fill="#000000" d="M162.76 127.12c5.24 4.22 8.57 10.59 9.6 17.24.8 5.18.28 10.51-.89 15.62-1.17 5.12-2.97 10.06-4.77 15-.71 1.96-1.43 3.95-1.71 6.02-.29 2.08-.11 4.27.89 6.11 1.15 2.11 3.29 3.56 5.59 4.24 2.27.68 4.72.66 7.02.09 2.3-.57 6.17-1.31 8.04-2.77 4.75-3.69 5.88-10.1 7.01-15.72 1.17-5.87.6-12.02-.43-17.95-1.41-8.09-3.78-15.99-6.79-23.62a82.272 82.272 0 0 0-8.44-15.96c-3.32-4.89-8.02-8.7-11.5-13.48-1.21-1.66-2.66-3.38-3.84-5.06-2.56-3.62-1.98-2.94-3.57-5.29-1.15-1.7-2.97-2.28-4.88-3.02-1.92-.74-4.06-.96-6.04-.41-2.6.73-4.73 2.79-5.86 5.24-1.13 2.46-1.33 5.28-.89 7.95.57 3.44 2.14 6.64 3.92 9.64 2 3.39 4.32 6.66 7.35 9.18 3.16 2.63 6.98 4.37 10.19 6.95z" style="display:inline"/>
        </g>
        <g style="display:inline">
            <path id="x" fill="#000000" d="M34.98 175.33c1.38-.57 2.93-.68 4.39-.41 1.47.27 2.86.91 4.09 1.74 2.47 1.68 4.3 4.12 6.05 6.54 4.03 5.54 7.9 11.2 11.42 17.08 2.85 4.78 5.46 9.71 8.76 14.18 2.15 2.93 4.57 5.64 6.73 8.55 2.16 2.92 4.07 6.08 5.03 9.58 1.25 4.55.76 9.56-1.4 13.75-1.52 2.95-3.86 5.48-6.7 7.19-2.84 1.71-5.83 2.47-9.15 2.47-5.27 0-10.42-2.83-15.32-4.78-9.98-3.98-20.82-5.22-31.11-8.32-3.16-.95-6.27-2.08-9.45-2.95-1.42-.39-2.85-.73-4.19-1.34-1.34-.6-2.59-1.51-3.33-2.77-.57-.98-.8-2.13-.8-3.26 0-1.14.28-2.26.67-3.32.77-2.13 2.02-4.06 2.86-6.17 1.37-3.44 1.62-7.23 1.43-10.93-.18-3.69-.78-7.36-1.03-11.05-.12-1.65-.16-3.32.16-4.95.31-1.62 1.01-3.21 2.2-4.35 1.1-1.06 2.55-1.69 4.05-2 1.49-.31 3.03-.32 4.55-.29 1.52.03 3.05.12 4.57-.01 1.52-.12 3.05-.46 4.37-1.22 1.26-.72 2.29-1.79 3.14-2.96.85-1.17 1.54-2.45 2.25-3.72.7-1.26 1.43-2.52 2.36-3.64.92-1.12 2.06-2.09 3.4-2.64z" style="display:inline;fill:#000;fill-opacity:0;stroke:#000;stroke-width:7;stroke-dasharray:none;stroke-opacity:1" transform="translate(4.008 21.022) scale(.9024)"/>
            <path id="y" fill="#000000" d="M213.47 222.92c-2.26 2.68-5.4 4.45-8.53 6.05-5.33 2.71-10.86 5.1-15.87 8.37-3.36 2.19-6.46 4.76-9.36 7.53-2.48 2.37-4.83 4.9-7.61 6.91-2.81 2.03-6.05 3.5-9.48 4.01-.95.14-1.9.21-2.86.21-3.24 0-6.48-.78-9.46-2.08-2.7-1.17-5.3-2.86-6.86-5.36-1.56-2.52-1.92-5.59-1.92-8.56-.01-5.23.96-10.41 1.87-15.57.76-4.29 1.48-8.58 1.95-12.91.85-7.86.84-15.81.28-23.71-.1-1.32-.21-2.65-.01-3.96.2-1.31.74-2.62 1.74-3.48.93-.8 2.17-1.16 3.4-1.22 1.22-.07 2.44.12 3.65.3 2.85.42 5.73.74 8.52 1.48 1.76.46 3.48 1.08 5.23 1.56 2.94.79 6.01 1.17 9.02.82 3.25-.38 6.41-1.6 9.68-1.52 1.34.03 2.67.28 3.95.69 1.3.41 2.59 1 3.55 1.98.73.74 1.24 1.67 1.62 2.64.57 1.44.88 2.98 1.01 4.52.11 1.37.09 2.76.35 4.11.43 2.21 1.6 4.24 3.04 5.97 1.45 1.74 3.18 3.21 4.91 4.66 1.73 1.45 3.46 2.89 5.32 4.16.87.6 1.77 1.16 2.6 1.81.83.66 1.59 1.42 2.11 2.34.45.81.69 1.72.69 2.65 0 .52-.07 1.04-.23 1.56-.45 1.43-1.28 2.82-2.3 4.04z" style="display:inline;fill:#000;fill-opacity:0;stroke:#000;stroke-width:7;stroke-miterlimit:4;stroke-dasharray:none;stroke-opacity:1;paint-order:normal"/>
        </g>
        <g style="display:inline">
            <path id="z" fill="#000000" d="M189.55 178.72c-.35-.95-.97-1.79-1.72-2.47-.75-.68-1.64-1.2-2.57-1.6-1.86-.79-3.89-1.09-5.89-1.46-1.87-.35-3.74-.78-5.62-1.1-1.96-.33-3.98-.55-5.92-.11-1.69.38-3.26 1.26-4.54 2.43-1.28 1.17-2.28 2.63-3 4.21-1.27 2.79-1.67 5.92-1.43 8.97.18 2.27.76 4.61 2.25 6.32 1.21 1.39 2.92 2.26 4.68 2.78 3.04.9 6.35.85 9.36-.13a24.7 24.7 0 0 0 12.35-9.29c.98-1.43 1.82-2.98 2.2-4.66.29-1.28.3-2.66-.15-3.89z"/>
        </g>
        <g style="display:inline">
            <path id="C" fill="#000000" d="M80.75 50.99c-.32 1.94-.33 3.97.33 5.81.44 1.22 1.17 2.33 2.05 3.28.57.62 1.23 1.18 1.99 1.55.77.37 1.65.52 2.48.32.76-.19 1.42-.68 1.91-1.29s.82-1.34 1.05-2.09c.69-2.21.58-4.62-.11-6.83-.49-1.61-1.32-3.16-2.6-4.24-.62-.52-1.34-.93-2.12-1.11-.78-.19-1.63-.14-2.36.19-.81.37-1.44 1.07-1.85 1.86-.41.79-.62 1.67-.77 2.55z"/>
            <path id="F" fill="#000000" d="M117.14 45.52c-.9.06-1.78.37-2.55.85-.76.48-1.41 1.13-1.92 1.88-1.03 1.49-1.48 3.31-1.55 5.12-.05 1.35.1 2.72.55 4 .45 1.28 1.2 2.47 2.25 3.33 1.07.89 2.42 1.42 3.81 1.49 1.39.06 2.79-.34 3.93-1.13.91-.63 1.64-1.5 2.16-2.48.52-.97.84-2.05.98-3.15.25-1.93-.03-3.95-.93-5.69-.89-1.74-2.41-3.17-4.24-3.84-.8-.29-1.65-.44-2.49-.38z"/>
            <path id="G" d="M101.57 58.446c-2.009-.045-4.039.324-5.946.988a20.297 20.297 0 0 0-8.764 5.991 17.64 17.64 0 0 0-3.765 3.435c-.612.757-1.173 1.58-1.48 2.499-.244.725-.61 2.82-.602 3.103.114 1.236 1.09 1.849 2.057 2.438 4.41 2.787 5.944 7.626 9.69 10.252 1.564 1.105 3.434 1.725 5.338 1.92 2.235.222 4.496-.135 6.655-.773 1.998-.586 3.927-1.41 5.695-2.507 3.374-2.074 6.188-5.117 9.902-6.486 3.254-.8 4.315-1.704 5.348-7.615.171-.646.239-4.15-2.321-5.288-.842-.374-1.752-.552-2.645-.773a37.631 37.631 0 0 1-7.939-2.899c-1.258-.62-2.481-1.308-3.713-1.97-1.275-.68-2.568-1.335-3.945-1.76a13.34 13.34 0 0 0-3.564-.555z" style="display:inline;fill:none;fill-opacity:1;stroke:#000;stroke-width:5.95;stroke-dasharray:none;stroke-opacity:1"/>
        </g>
    </g>
</svg>
